<svg xmlns="http://www.w3.org/2000/svg" width="256" height="256" viewBox="0 0 100 100"><rect width="100" height="100" rx="20" fill="#0da2b8"></rect><path d="M65.39 60.17Q65.39 74.84 67.01 74.84Q68.63 74.84 71.38 71.11Q74.12 67.37 76.78 61.48Q79.43 55.58 80.02 55.58Q80.60 55.58 80.60 56.30L80.60 56.30Q80.60 58.82 77.54 65.48L77.54 65.48Q70.97 79.43 65.75 79.43L65.75 79.43Q63.77 79.43 62.15 78.94Q60.53 78.44 60.17 77.99L60.17 77.99Q59.27 76.91 59.27 70.07L59.27 70.07Q59.27 53.87 60.35 43.79L60.35 43.79Q55.13 48.92 50.81 55.49L50.81 55.49Q52.70 62.69 52.70 67.95Q52.70 73.22 50.67 76.10Q48.65 78.98 45.59 78.98L45.59 78.98Q41.90 78.98 41.90 71.87L41.90 71.87Q41.90 67.01 45.77 59L45.77 59Q43.97 52.70 40.55 46.67L40.55 46.67Q39.11 54.86 36.14 63.41Q33.17 71.96 30.02 76.15Q26.87 80.33 22.55 80.33L22.55 80.33Q19.40 80.33 19.40 77.90L19.40 77.90Q19.40 75.92 20.75 75.11Q22.10 74.30 23.95 73.90Q25.79 73.49 26.33 72.95L26.33 72.95Q29.84 69.26 32.95 60.35Q36.05 51.44 37.49 42.08L37.49 42.08Q33.62 37.04 33.62 34.57Q33.62 32.09 34.92 30.20Q36.23 28.31 39.20 28.31L39.20 28.31Q40.10 28.31 40.73 30.61Q41.36 32.90 41.36 35.42L41.36 35.42Q46.85 43.43 49.73 51.98L49.73 51.98Q54.77 43.70 61.25 36.68L61.25 36.68Q64.04 19.67 67.73 19.67L67.73 19.67Q68.99 19.67 70.39 21.56Q71.78 23.45 71.78 25.43L71.78 25.43Q71.78 31.55 66.47 37.85L66.47 37.85Q65.39 45.50 65.39 60.17ZM46.67 62.87L46.67 62.87Q44.51 67.64 44.51 71.38Q44.51 75.11 45.41 75.11Q46.31 75.11 46.76 72.91Q47.21 70.70 47.21 68.27Q47.21 65.84 46.67 62.87Z" fill="#fff"></path></svg>