<?xml version="1.0" encoding="utf-8"?>
<!-- Generator: Adobe Illustrator 16.0.0, SVG Export Plug-In . SVG Version: 6.00 Build 0)  -->
<!DOCTYPE svg PUBLIC "-//W3C//DTD SVG 1.0//EN" "http://www.w3.org/TR/2001/REC-SVG-20010904/DTD/svg10.dtd">
<svg version="1.0" id="Layer_1" xmlns="http://www.w3.org/2000/svg" xmlns:xlink="http://www.w3.org/1999/xlink" x="0px" y="0px"
	 width="100px" height="100px" viewBox="0 0 100 100" enable-background="new 0 0 100 100" xml:space="preserve">
<polygon fill="#FAEC91" stroke="#3E2426" stroke-width="1.5" stroke-linecap="round" stroke-linejoin="round" stroke-miterlimit="10" points="
	66.471,59.413 33.53,59.413 31.176,47.649 68.824,47.649 "/>
<polygon fill="#D8CE80" points="61.766,47.649 59.411,59.413 66.471,59.413 68.824,47.649 "/>
<path fill="#FCE9BB" stroke="#3E2426" stroke-width="1.5" stroke-linecap="round" stroke-linejoin="round" stroke-miterlimit="10" d="
	M62.923,47.649c2.215-2.807,3.548-6.343,3.548-10.195v-0.001c0.003-4.548-1.846-8.663-4.822-11.649l-0.664-0.665
	c-2.092-2.088-3.139-4.828-3.139-7.568c0-2.74,1.047-5.48,3.129-7.572c-7.578,0.003-14.436,3.074-19.406,8.042
	c-4.964,4.968-8.042,11.832-8.042,19.413c0.003,3.852,1.336,7.388,3.554,10.195H62.923z"/>
<path fill="#DACAA4" d="M50.98,18.041c2.353-2.351,5.132-4.27,8.204-5.646c0.474-0.857,1.065-1.667,1.79-2.395
	c-7.578,0.003-14.436,3.074-19.406,8.042c-4.964,4.968-8.042,11.832-8.042,19.413c0.003,3.852,1.336,7.388,3.554,10.195h9.413
	c-2.218-2.807-3.551-6.343-3.554-10.195C42.94,29.873,46.017,23.009,50.98,18.041z"/>
<polygon fill="#FAEC91" stroke="#3E2426" stroke-width="1.5" stroke-linecap="round" stroke-linejoin="round" stroke-miterlimit="10" points="
	36.264,59.413 40.589,90 59.411,90 63.737,59.413 "/>
<polygon fill="#D8CE80" points="56.678,59.413 52.353,90 59.411,90 63.737,59.413 "/>
<path fill="none" stroke="#3E2426" stroke-width="1.5" stroke-linecap="round" stroke-linejoin="round" stroke-miterlimit="10" d="
	M32,51.766h36.001H32z"/>
<path fill="none" stroke="#3E2426" stroke-width="1.5" stroke-linecap="round" stroke-linejoin="round" stroke-miterlimit="10" d="
	M32.707,55.295h34.587H32.707z"/>
<path fill="#F49AB0" stroke="#3E2426" stroke-width="1.5" stroke-linecap="round" stroke-linejoin="round" stroke-miterlimit="10" d="
	M62.923,47.649c-13.047-0.002-23.994-8.865-27.233-20.889c-1.391,3.288-2.163,6.9-2.163,10.694
	c0.003,3.852,1.336,7.388,3.554,10.195H62.923L62.923,47.649z"/>
<path fill="#D3869A" d="M35.689,26.76c-1.391,3.288-2.163,6.9-2.163,10.694c0.003,3.852,1.336,7.388,3.554,10.195h9.413
	c-1.824-2.309-3.035-5.115-3.415-8.181C39.594,36.009,37.006,31.645,35.689,26.76z"/>
<path fill="#F49AB0" stroke="#3E2426" stroke-width="1.5" stroke-linecap="round" stroke-linejoin="round" stroke-miterlimit="10" d="
	M39.892,19.888c0.532-0.64,1.089-1.258,1.676-1.847c0.95-0.948,1.988-1.803,3.067-2.607c2.163,11.085,10.804,19.846,21.828,22.179
	c-0.02,1.829-0.334,3.586-0.904,5.224C52.677,41.9,42.204,32.339,39.892,19.888z"/>
<path fill="#D3869A" d="M43.958,30.052c0.727-2.595,1.822-5.034,3.229-7.257c-1.167-2.292-2.044-4.759-2.552-7.361
	c-1.08,0.804-2.117,1.659-3.067,2.607c-0.587,0.589-1.145,1.207-1.676,1.847C40.578,23.582,41.986,27.018,43.958,30.052z"/>
<path fill="#F49AB0" stroke="#3E2426" stroke-width="1.5" stroke-linecap="round" stroke-linejoin="round" stroke-miterlimit="10" d="
	M65.079,30.843c-7.51-3.525-13.196-10.245-15.327-18.421C53.18,10.878,56.97,10.003,60.975,10c-2.082,2.092-3.129,4.832-3.129,7.572
	c0,2.74,1.047,5.479,3.139,7.568l0.664,0.665C63.085,27.245,64.249,28.952,65.079,30.843z"/>
<path fill="#D3869A" d="M59.376,10.05c-3.416,0.203-6.655,1.035-9.624,2.372c0.456,1.75,1.084,3.428,1.848,5.027
	c2.216-2.08,4.776-3.796,7.584-5.055c0.01-0.017,0.021-0.033,0.03-0.05c0.182-0.324,0.383-0.641,0.601-0.949
	c0.096-0.136,0.192-0.271,0.297-0.404c0.076-0.099,0.153-0.198,0.234-0.294c0.198-0.239,0.404-0.473,0.628-0.697
	c-0.496,0-0.989,0.015-1.479,0.042C59.455,10.043,59.416,10.047,59.376,10.05z"/>
<polygon fill="none" stroke="#3E2426" stroke-width="1.5" stroke-linecap="round" stroke-linejoin="round" stroke-miterlimit="10" points="
	40.589,90 61.574,74.705 36.264,59.413 61.574,74.705 "/>
<polygon fill="none" stroke="#3E2426" stroke-width="1.5" stroke-linecap="round" stroke-linejoin="round" stroke-miterlimit="10" points="
	59.411,90 38.426,74.705 63.737,59.413 38.426,74.705 "/>
<polygon fill="none" stroke="#3E2426" stroke-width="1.5" stroke-linecap="round" stroke-linejoin="round" stroke-miterlimit="10" points="
	66.471,59.413 33.53,59.413 31.176,47.649 68.824,47.649 "/>
<polygon fill="none" stroke="#3E2426" stroke-width="1.5" stroke-linecap="round" stroke-linejoin="round" stroke-miterlimit="10" points="
	36.264,59.413 40.589,90 59.411,90 63.737,59.413 "/>
<path fill="none" stroke="#3E2426" stroke-width="1.5" stroke-linecap="round" stroke-linejoin="round" stroke-miterlimit="10" d="
	M62.923,47.649c2.215-2.807,3.548-6.343,3.548-10.195v-0.001c0.003-4.548-1.846-8.663-4.822-11.649l-0.664-0.665
	c-2.092-2.088-3.139-4.828-3.139-7.568c0-2.74,1.047-5.48,3.129-7.572c-7.578,0.003-14.436,3.074-19.406,8.042
	c-4.964,4.968-8.042,11.832-8.042,19.413c0.003,3.852,1.336,7.388,3.554,10.195H62.923z"/>
<path fill="none" stroke="#3E2426" stroke-width="1.5" stroke-linecap="round" stroke-linejoin="round" stroke-miterlimit="10" d="
	M62.923,47.649c-13.047-0.002-23.994-8.865-27.233-20.889c-1.391,3.288-2.163,6.9-2.163,10.694
	c0.003,3.852,1.336,7.388,3.554,10.195H62.923L62.923,47.649z"/>
<path fill="none" stroke="#3E2426" stroke-width="1.5" stroke-linecap="round" stroke-linejoin="round" stroke-miterlimit="10" d="
	M39.892,19.888c0.532-0.64,1.089-1.258,1.676-1.847c0.95-0.948,1.988-1.803,3.067-2.607c2.163,11.085,10.804,19.846,21.828,22.179
	c-0.02,1.829-0.334,3.586-0.904,5.224C52.677,41.9,42.204,32.339,39.892,19.888z"/>
<path fill="none" stroke="#3E2426" stroke-width="1.5" stroke-linecap="round" stroke-linejoin="round" stroke-miterlimit="10" d="
	M65.079,30.843c-7.51-3.525-13.196-10.245-15.327-18.421C53.18,10.878,56.97,10.003,60.975,10c-2.082,2.092-3.129,4.832-3.129,7.572
	c0,2.74,1.047,5.479,3.139,7.568l0.664,0.665C63.085,27.245,64.249,28.952,65.079,30.843z"/>
</svg>
